HIERARCHY
ROOT Hips
{
	OFFSET 0.000000 0.000000 0.000000
	CHANNELS 6 Xposition Yposition Zposition Zrotation Yrotation Xrotation 
	JOINT LHipJoint
	{
		OFFSET 0.000000 0.000000 0.000000
		CHANNELS 3 Zrotation Yrotation Xrotation
		JOINT LeftUpLeg
		{
			OFFSET 1.363060 -1.794630 0.839290
			CHANNELS 3 Zrotation Yrotation Xrotation
			JOINT LeftLeg
			{
				OFFSET 2.448110 -6.726130 0.000000
				CHANNELS 3 Zrotation Yrotation Xrotation
				JOINT LeftFoot
				{
					OFFSET 2.562200 -7.039590 0.000000
					CHANNELS 3 Zrotation Yrotation Xrotation
					JOINT LeftToeBase
					{
						OFFSET 0.157640 -0.433110 2.322550
						CHANNELS 3 Zrotation Yrotation Xrotation
						End Site
						{
							OFFSET 0.000000 0.000000 0.000000
						}
					}
				}
			}
		}
	}
	JOINT RHipJoint
	{
		OFFSET 0.000000 0.000000 0.000000
		CHANNELS 3 Zrotation Yrotation Xrotation
		JOINT RightUpLeg
		{
			OFFSET -1.305520 -1.794630 0.839290
			CHANNELS 3 Zrotation Yrotation Xrotation
			JOINT RightLeg
			{
				OFFSET -2.542530 -6.985550 0.000000
				CHANNELS 3 Zrotation Yrotation Xrotation
				JOINT RightFoot
				{
					OFFSET -2.568260 -7.056230 0.000000
					CHANNELS 3 Zrotation Yrotation Xrotation
					JOINT RightToeBase
					{
						OFFSET -0.164730 -0.452590 2.363150
						CHANNELS 3 Zrotation Yrotation Xrotation
						End Site
						{
							OFFSET 0.000000 0.000000 0.000000
						}
					}
				}
			}
		}
	}
}
MOTION
Frames: 19
Frame Time: 0.008333
-3.579820 15.616927 -1.092810 -3.435383 82.250436 30.719149 -8.035190 -2.096551 -0.020648 -9.915397 -6.042559 -75.907815 -1.704724 3.584707 47.387953 0.965769 2.160293 -9.270257 0.098900 0.000000 -32.889600 10.634570 -0.651936 -6.931359 15.094845 -11.230165 -36.062023 1.364108 -4.856771 61.948362 0.561772 8.308640 -14.003191 -0.790000 0.000000 -66.075099
-3.379572 15.557122 -1.069700 -5.592215 81.489481 28.061171 -8.097388 -2.234278 -0.197528 -9.295129 -5.566562 -75.801305 -1.386080 3.784621 50.129165 1.118817 2.956706 -9.716556 0.066400 -0.000000 -30.726300 10.774019 -0.677289 -6.859322 14.606461 -11.068014 -35.256014 1.121261 -4.885228 63.021405 0.628012 8.627366 -12.770731 -0.715201 -0.000000 -67.970799
-3.180002 15.497919 -1.044031 -7.256912 80.655966 25.891257 -8.159956 -2.366012 -0.406200 -8.800311 -4.977754 -75.585636 -1.106699 3.979698 52.831860 1.274653 3.753783 -10.382269 0.000800 -0.000001 -28.612701 10.918558 -0.694753 -6.751456 14.082411 -10.764045 -34.540263 0.843155 -4.917889 64.212530 0.683519 8.906964 -11.295310 -0.585600 -0.000000 -69.720500
-2.981590 15.440796 -1.015711 -8.508623 79.763989 24.144641 -8.222051 -2.485344 -0.639294 -8.436116 -4.284087 -75.264742 -0.873897 4.166545 55.392334 1.431215 4.539501 -11.262063 -0.104700 -0.000000 -26.777400 11.064714 -0.704484 -6.608662 13.543422 -10.319834 -33.938024 0.532670 -4.953225 65.507746 0.722877 9.137188 -9.548451 -0.390200 0.000000 -71.285600
-2.784718 15.387158 -0.984760 -9.441088 78.828528 22.739884 -8.282659 -2.588018 -0.888745 -8.191502 -3.498674 -74.851472 -0.689141 4.343400 57.743571 1.588391 5.308041 -12.343311 -0.255899 0.000000 -25.392400 11.208437 -0.706101 -6.433109 13.013638 -9.743462 -33.467225 0.196057 -4.988544 66.890409 0.739249 9.303249 -7.534380 -0.123800 0.000001 -72.556600
-2.589850 15.338176 -0.951320 -10.133284 77.866049 21.602736 -8.340700 -2.672166 -1.147977 -8.048569 -2.638702 -74.355695 -0.550238 4.508782 59.848868 1.746759 6.056310 -13.603361 -0.456900 0.000001 -24.552700 11.346218 -0.698572 -6.230634 12.514243 -9.056964 -33.138200 -0.158203 -5.021667 68.345143 0.725533 9.382275 -5.280601 0.210800 -0.000001 -73.423200
-2.397351 15.294780 -0.915675 -10.656006 76.893666 20.662974 -8.395898 -2.737454 -1.410631 -7.983052 -1.724606 -73.784902 -0.452503 4.661180 61.695155 1.906572 6.781375 -15.007130 -0.708800 -0.000000 -24.279500 11.474667 -0.680834 -6.009151 12.064484 -8.289696 -32.952281 -0.519413 -5.050657 69.856265 0.675742 9.341471 -2.847676 0.596800 -0.000000 -73.756500
-2.207438 15.257588 -0.878250 -11.066133 75.927575 19.860380 -8.449015 -2.784435 -1.670682 -7.967823 -0.778980 -73.141935 -0.389723 4.798898 63.285359 2.067136 7.480020 -16.506608 -1.008700 -0.000000 -24.530600 11.590808 -0.652054 -5.778254 11.680742 -7.476131 -32.903930 -0.876034 -5.074617 71.410139 0.586563 9.137613 -0.329456 1.000300 0.000000 -73.440600
-2.020342 15.226922 -0.839530 -11.404076 74.984385 19.147673 -8.501629 -2.814151 -1.923029 -7.977288 0.173663 -72.424695 -0.354919 4.920163 64.633358 2.226589 8.148789 -18.045829 -1.348800 -0.000000 -25.211101 11.692562 -0.611771 -5.549176 11.374696 -6.655504 -32.982653 -1.218004 -5.094297 72.996169 0.457858 8.718040 2.162293 1.370600 -0.000000 -72.418400
-1.836259 15.202819 -0.799985 -11.693674 74.080620 18.491687 -8.555966 -2.827735 -2.163438 -7.988972 1.108278 -71.627059 -0.340749 5.023349 65.760182 2.382000 8.784892 -19.564894 -1.717500 0.000000 -26.187300 11.778956 -0.559957 -5.333824 11.152943 -5.869469 -33.175698 -1.538294 -5.112067 74.607184 0.292176 8.025248 4.507567 1.646600 -0.000000 -70.711300
-1.655264 15.185127 -0.760145 -11.955907 73.229858 17.864687 -8.614716 -2.825982 -2.387387 -7.982325 2.000936 -70.745454 -0.339991 5.107389 66.690076 2.529965 9.386729 -21.007164 -2.100300 -0.000000 -27.306600 11.849502 -0.497032 -5.142268 11.020194 -5.153592 -33.471040 -1.833327 -5.130663 76.236024 0.093885 7.006280 6.584304 1.765700 0.000000 -68.401100
-1.477350 15.173448 -0.720439 -12.203947 72.444475 17.247796 -8.680294 -2.809701 -2.591302 -7.942391 2.830186 -69.777771 -0.346165 5.171765 67.447948 2.667076 9.954079 -22.324256 -2.481600 -0.000001 -28.427300 11.904550 -0.423594 -4.983120 10.976952 -4.538827 -33.858847 -2.103069 -5.153329 77.876171 -0.132333 5.624507 8.284796 1.679999 0.000000 -65.631800
-1.302612 15.167276 -0.681206 -12.446265 71.733367 16.629253 -8.754303 -2.779844 -2.772819 -7.859757 3.578982 -68.726440 -0.353836 5.216802 68.058381 2.790564 10.488488 -23.479720 -2.847500 0.000000 -29.445500 11.945061 -0.340234 -4.862829 11.020497 -4.047995 -34.332085 -2.349853 -5.183228 79.520371 -0.382111 3.871922 9.519733 1.369699 0.000000 -62.555000
-1.130917 15.166097 -0.642692 -12.694641 71.101419 15.998771 -8.837809 -2.737138 -2.929439 -7.728706 4.237253 -67.600947 -0.359286 5.243715 68.541524 2.898647 10.991386 -24.452390 -3.186200 0.000000 -30.302200 11.971742 -0.247938 -4.783464 11.147104 -3.690787 -34.887468 -2.576764 -5.222347 81.156922 -0.651004 1.780041 10.220493 0.852800 0.000000 -59.287600
-0.962294 15.169311 -0.605020 -12.956887 70.549584 15.351974 -8.930349 -2.682902 -3.060726 -7.549562 4.801657 -66.416600 -0.360451 5.254641 68.915944 2.990692 11.463811 -25.237723 -3.490101 -0.000000 -30.986801 11.985747 -0.147657 -4.745048 11.350182 -3.468416 -35.525428 -2.786780 -5.272513 82.773216 -0.933735 -0.575273 10.343573 0.188000 -0.000000 -55.881000
-0.796691 15.176374 -0.568129 -13.240836 70.074541 14.687972 -9.030539 -2.618561 -3.167077 -7.326558 5.276829 -65.194192 -0.357100 5.252432 69.196173 3.067261 11.905695 -25.846842 -3.756001 -0.000000 -31.522700 11.987999 -0.040775 -4.743918 11.622367 -3.370936 -36.249554 -2.981787 -5.334487 84.352936 -1.223338 -3.078501 9.875506 -0.532900 -0.000001 -52.326100
-0.633994 15.186802 -0.531823 -13.550410 69.669358 14.011308 -9.136158 -2.545826 -3.250209 -7.067397 5.674134 -63.957365 -0.350484 5.240377 69.394163 3.129757 12.315354 -26.303529 -3.984000 -0.000000 -31.955800 11.979250 0.071168 -4.773667 11.954592 -3.380238 -37.065832 -3.162088 -5.408120 85.876537 -1.510714 -5.587015 8.839853 -1.201601 0.000000 -48.583701
-0.474202 15.200197 -0.495811 -13.885700 69.324622 13.330284 -9.244298 -2.466877 -3.313495 -6.782328 6.009845 -62.730163 -0.342801 5.221866 69.520386 3.179988 12.689590 -26.639406 -4.177600 0.000000 -32.345100 11.960097 0.186763 -4.826305 12.337252 -3.472361 -37.981335 -3.326437 -5.492552 87.323628 -1.784933 -7.951984 7.299486 -1.717900 0.000000 -44.625300
-0.317236 15.216110 -0.459680 -14.240792 69.029225 12.659571 -9.351795 -2.384201 -3.361638 -6.482951 6.303456 -61.534771 -0.336704 5.200083 69.584259 3.219837 13.024477 -26.888442 -4.341600 0.000000 -32.753500 11.930875 0.304897 -4.893002 12.760336 -3.620383 -39.002806 -3.472118 -5.586187 88.672484 -2.034251 -10.040319 5.355602 -2.012200 -0.000000 -40.473100
